<?xml version="1.0" encoding="UTF-8"?>
<svg width="100" height="100" viewBox="0 0 100 100" xmlns="http://www.w3.org/2000/svg" style="transform:rotate(-90deg)">
  <g transform="translate(50, 50)">
    <circle r="8" fill="rgba(255, 77, 6, 0.7)" />
    <path d="M -3.0402579157511354,-8 L -3.616847807822342,-47.83294906602168 L 8.177298246718419,-47.83294906602168 L 3.0402579157511354,-8 Z" transform="rotate(0)" fill="rgba(255, 77, 6, 0.7)" />
    <path d="M -4.545178452509572,-8 L -5.130206628821906,-39.572115655035304 L 1.0363533363823083,-39.572115655035304 L 4.545178452509572,-8 Z" transform="rotate(24)" fill="rgba(255, 77, 6, 0.7)" />
    <path d="M -4.947066394542344,-8 L -5.3090047017905135,-45.761202367559235 L 2.58625206589943,-45.761202367559235 L 4.947066394542344,-8 Z" transform="rotate(48)" fill="rgba(255, 77, 6, 0.7)" />
    <path d="M -2.7795234325516502,-8 L -1.4983159064788196,-46.66788138622519 L 4.636183428767981,-46.66788138622519 L 2.7795234325516502,-8 Z" transform="rotate(72)" fill="rgba(255, 77, 6, 0.7)" />
    <path d="M -3.2082358848536385,-8 L -7.4456783147999435,-48.68971136428547 L 2.830488434503286,-48.68971136428547 L 3.2082358848536385,-8 Z" transform="rotate(96)" fill="rgba(255, 77, 6, 0.7)" />
    <path d="M -3.2048058186934214,-8 L -4.978026496991515,-42.188738855590145 L 1.2293367418285925,-42.188738855590145 L 3.2048058186934214,-8 Z" transform="rotate(120)" fill="rgba(255, 77, 6, 0.7)" />
    <path d="M -4.182409689821361,-8 L -3.9223005851396007,-49.35104886694262 L 1.621967477038561,-49.35104886694262 L 4.182409689821361,-8 Z" transform="rotate(144)" fill="rgba(255, 77, 6, 0.7)" />
    <path d="M -3.297379606156028,-8 L -2.7550129573271986,-45.62818934058669 L 3.1140080055749424,-45.62818934058669 L 3.297379606156028,-8 Z" transform="rotate(168)" fill="rgba(255, 77, 6, 0.7)" />
    <path d="M -4.462755205930444,-8 L -1.215933805378154,-39.87077294873279 L 5.086660841433331,-39.87077294873279 L 4.462755205930444,-8 Z" transform="rotate(192)" fill="rgba(255, 77, 6, 0.7)" />
    <path d="M -2.971479361690581,-8 L -3.452517815221654,-50.06408640617519 L 3.2619129204067576,-50.06408640617519 L 2.971479361690581,-8 Z" transform="rotate(216)" fill="rgba(255, 77, 6, 0.7)" />
    <path d="M -5.2362061551626535,-8 L -1.74700613773457,-41.73126907732876 L 4.396302534766437,-41.73126907732876 L 5.2362061551626535,-8 Z" transform="rotate(240)" fill="rgba(255, 77, 6, 0.7)" />
    <path d="M -2.979011417311267,-8 L -0.7171686237619725,-44.80443756787281 L 3.6344820295722453,-44.80443756787281 L 2.979011417311267,-8 Z" transform="rotate(264)" fill="rgba(255, 77, 6, 0.7)" />
    <path d="M -5.488297933081048,-8 L -4.301526536375604,-40.305337683240396 L 0.7507851751543058,-40.305337683240396 L 5.488297933081048,-8 Z" transform="rotate(288)" fill="rgba(255, 77, 6, 0.7)" />
    <path d="M -4.504198855540016,-8 L -6.552295764811061,-51.292736545440675 L 4.13467591984845,-51.292736545440675 L 4.504198855540016,-8 Z" transform="rotate(312)" fill="rgba(255, 77, 6, 0.7)" />
    <path d="M -4.148452034627553,-8 L -0.8362204302662577,-47.884325389965625 L 3.563206177214306,-47.884325389965625 L 4.148452034627553,-8 Z" transform="rotate(336)" fill="rgba(255, 77, 6, 0.7)" />
  </g>
</svg>